# Blender 3.3.0
# www.blender.org
mtllib untitled.mtl
o Cube
v -0.458749 0.001832 0.358284
v -0.458749 0.181040 0.358284
v -0.458749 0.001832 0.020380
v -0.458749 0.181040 0.020380
v 0.458749 0.001832 0.358284
v 0.458749 0.181040 0.358284
v 0.458749 0.001832 0.020380
v 0.458749 0.181040 0.020380
v -0.479830 1.605282 0.014655
v -0.479830 0.000000 0.014655
v -0.487534 0.000000 0.004050
v -0.487534 1.605282 0.004051
v -0.500000 0.000000 0.000000
v -0.500000 1.605282 0.000000
v -0.512466 0.000000 0.004050
v -0.512466 1.605282 0.004051
v -0.520170 0.000000 0.014655
v -0.520170 1.605282 0.014655
v -0.520170 0.000000 0.027762
v -0.520170 1.605282 0.027762
v -0.512466 0.000000 0.038366
v -0.512466 1.605282 0.038366
v -0.500000 0.000000 0.042417
v -0.500000 1.605282 0.042417
v -0.487534 0.000000 0.038366
v -0.487534 1.605282 0.038366
v -0.479830 0.000000 0.027762
v -0.479830 1.605282 0.027762
v -0.500000 0.000000 0.021208
v -0.500000 1.605282 0.021208
v -0.479830 1.605282 0.362287
v -0.479830 -0.000000 0.362287
v -0.487534 -0.000000 0.351682
v -0.487534 1.605282 0.351683
v -0.500000 -0.000000 0.347632
v -0.500000 1.605282 0.347632
v -0.512466 -0.000000 0.351682
v -0.512466 1.605282 0.351683
v -0.520170 -0.000000 0.362287
v -0.520170 1.605282 0.362287
v -0.520170 -0.000000 0.375394
v -0.520170 1.605282 0.375394
v -0.512466 -0.000000 0.385998
v -0.512466 1.605282 0.385998
v -0.500000 -0.000000 0.390049
v -0.500000 1.605282 0.390049
v -0.487534 -0.000000 0.385998
v -0.487534 1.605282 0.385998
v -0.479830 -0.000000 0.375394
v -0.479830 1.605282 0.375394
v -0.500000 -0.000000 0.368840
v -0.500000 1.605282 0.368840
v 0.479830 1.605282 0.375394
v 0.479830 -0.000000 0.375394
v 0.487534 -0.000000 0.385998
v 0.487534 1.605282 0.385998
v 0.500000 -0.000000 0.390049
v 0.500000 1.605282 0.390049
v 0.512466 -0.000000 0.385998
v 0.512466 1.605282 0.385998
v 0.520170 -0.000000 0.375394
v 0.520170 1.605282 0.375394
v 0.520170 -0.000000 0.362287
v 0.520170 1.605282 0.362287
v 0.512466 -0.000000 0.351682
v 0.512466 1.605282 0.351683
v 0.500000 -0.000000 0.347632
v 0.500000 1.605282 0.347632
v 0.487534 -0.000000 0.351682
v 0.487534 1.605282 0.351683
v 0.479830 -0.000000 0.362287
v 0.479830 1.605282 0.362287
v 0.500000 -0.000000 0.368840
v 0.500000 1.605282 0.368840
v 0.479830 1.605282 0.027762
v 0.479830 0.000000 0.027762
v 0.487534 0.000000 0.038366
v 0.487534 1.605282 0.038366
v 0.500000 0.000000 0.042417
v 0.500000 1.605282 0.042417
v 0.512466 0.000000 0.038366
v 0.512466 1.605282 0.038366
v 0.520170 0.000000 0.027762
v 0.520170 1.605282 0.027762
v 0.520170 0.000000 0.014655
v 0.520170 1.605282 0.014655
v 0.512466 0.000000 0.004050
v 0.512466 1.605282 0.004051
v 0.500000 0.000000 0.000000
v 0.500000 1.605282 0.000000
v 0.487534 0.000000 0.004050
v 0.487534 1.605282 0.004051
v 0.479830 0.000000 0.014655
v 0.479830 1.605282 0.014655
v 0.500000 0.000000 0.021208
v 0.500000 1.605282 0.021208
v -0.472377 1.535771 0.348988
v 0.472846 1.535771 0.348988
v 0.472846 1.535771 0.041370
v -0.472377 1.535771 0.041370
v 0.472846 1.530153 0.348988
v 0.497846 1.530153 0.373988
v -0.497377 1.530153 0.373988
v -0.472377 1.530153 0.348988
v -0.472377 1.530153 0.041370
v -0.497377 1.530153 0.016370
v 0.497846 1.530153 0.016370
v 0.472846 1.530153 0.041370
v 0.472846 1.539771 0.348988
v -0.472377 1.539771 0.348988
v -0.497377 1.539771 0.373988
v 0.497846 1.539771 0.373988
v -0.472377 1.539771 0.041370
v 0.472846 1.539771 0.041370
v 0.497846 1.539771 0.016370
v -0.497377 1.539771 0.016370
v -0.472377 1.178736 0.348988
v 0.472846 1.178736 0.348988
v 0.472846 1.178736 0.041370
v -0.472377 1.178736 0.041370
v 0.472846 1.173119 0.348988
v 0.497846 1.173119 0.373988
v -0.497377 1.173119 0.373988
v -0.472377 1.173119 0.348988
v -0.472377 1.173119 0.041370
v -0.497377 1.173119 0.016370
v 0.497846 1.173119 0.016370
v 0.472846 1.173119 0.041370
v 0.472846 1.182737 0.348988
v -0.472377 1.182737 0.348988
v -0.497377 1.182737 0.373988
v 0.497846 1.182737 0.373988
v -0.472377 1.182737 0.041370
v 0.472846 1.182737 0.041370
v 0.497846 1.182737 0.016370
v -0.497377 1.182737 0.016370
v -0.472377 0.821702 0.041370
v -0.472377 0.821702 0.348988
v 0.472846 0.821702 0.348988
v 0.472846 0.821702 0.041370
v 0.472846 0.816084 0.041370
v -0.472377 0.816084 0.041370
v -0.497377 0.816084 0.016370
v 0.497846 0.816084 0.016370
v -0.472377 0.816084 0.348988
v 0.472846 0.816084 0.348988
v 0.497846 0.816084 0.373988
v -0.497377 0.816084 0.373988
v 0.472846 0.825703 0.041370
v 0.497846 0.825703 0.016370
v -0.497377 0.825703 0.016370
v -0.472377 0.825703 0.041370
v -0.472377 0.825703 0.348988
v -0.497377 0.825703 0.373988
v 0.497846 0.825703 0.373988
v 0.472846 0.825703 0.348988
v 0.472846 0.464668 0.041370
v -0.472377 0.464668 0.041370
v -0.472377 0.464668 0.348988
v 0.472846 0.464668 0.348988
v -0.472377 0.459050 0.041370
v -0.497377 0.459050 0.016370
v 0.497846 0.459050 0.016370
v 0.472846 0.459050 0.041370
v 0.472846 0.459050 0.348988
v 0.497846 0.459050 0.373988
v -0.497377 0.459050 0.373988
v -0.472377 0.459050 0.348988
v -0.472377 0.468668 0.041370
v 0.472846 0.468668 0.041370
v 0.497846 0.468668 0.016370
v -0.497377 0.468668 0.016370
v 0.472846 0.468668 0.348988
v -0.472377 0.468668 0.348988
v -0.497377 0.468668 0.373988
v 0.497846 0.468668 0.373988
v -0.472377 0.107633 0.348988
v 0.472846 0.107633 0.348988
v 0.472846 0.107633 0.041370
v -0.472377 0.107633 0.041370
v 0.472846 0.102016 0.348988
v 0.497846 0.102016 0.373988
v -0.497377 0.102016 0.373988
v -0.472377 0.102016 0.348988
v -0.472377 0.102016 0.041370
v -0.497377 0.102016 0.016370
v 0.497846 0.102016 0.016370
v 0.472846 0.102016 0.041370
v 0.472846 0.111634 0.348988
v -0.472377 0.111634 0.348988
v -0.497377 0.111634 0.373988
v 0.497846 0.111634 0.373988
v -0.472377 0.111634 0.041370
v 0.472846 0.111634 0.041370
v 0.497846 0.111634 0.016370
v -0.497377 0.111634 0.016370
vn -1.0000 -0.0000 -0.0000
vn -0.0000 -0.0000 -1.0000
vn 1.0000 -0.0000 -0.0000
vn -0.0000 -0.0000 1.0000
vn -0.0000 -1.0000 -0.0000
vn -0.0000 1.0000 -0.0000
vn 0.2044 -0.9762 -0.0730
vn 0.1825 0.9340 -0.3071
vn 0.2044 0.9762 -0.0730
vn 0.1825 -0.9340 -0.3071
vn -0.0000 0.8051 -0.5932
vn -0.0000 -0.8051 -0.5932
vn -0.1825 0.9340 -0.3071
vn -0.1825 -0.9340 -0.3071
vn -0.2044 0.9762 -0.0730
vn -0.2044 -0.9762 -0.0730
vn -0.2044 0.9762 0.0730
vn -0.2044 -0.9762 0.0730
vn -0.1825 0.9340 0.3071
vn -0.1825 -0.9340 0.3071
vn -0.0000 0.8051 0.5932
vn -0.0000 -0.8051 0.5932
vn 0.1825 0.9340 0.3071
vn 0.1825 -0.9340 0.3071
vn 0.2044 0.9762 0.0730
vn 0.2044 -0.9762 0.0730
vt 0.375000 0.000000
vt 0.375000 1.000000
vt 0.125000 0.750000
vt 0.625000 0.000000
vt 0.625000 1.000000
vt 0.875000 0.750000
vt 0.375000 0.250000
vt 0.125000 0.500000
vt 0.625000 0.250000
vt 0.875000 0.500000
vt 0.375000 0.750000
vt 0.625000 0.750000
vt 0.375000 0.500000
vt 0.625000 0.500000
vt 0.000000 0.000000
vt 0.000000 0.000000
vt 0.000000 0.000000
vt 0.000000 0.000000
vt 0.000000 0.000000
vt 0.000000 0.000000
vt 0.000000 0.000000
vt 0.000000 0.000000
vt 0.000000 0.000000
vt 0.000000 0.000000
vt 0.000000 0.000000
vt 0.000000 0.000000
vt 0.000000 0.000000
vt 0.000000 0.000000
vt 0.000000 0.000000
vt 0.000000 0.000000
vt 0.000000 0.000000
vt 0.000000 0.000000
vt 0.000000 0.000000
vt 0.000000 0.000000
vt 0.000000 0.000000
vt 0.000000 0.000000
vt 0.000000 0.000000
vt 0.000000 0.000000
vt 0.000000 0.000000
vt 0.000000 0.000000
vt 0.000000 0.000000
vt 0.000000 0.000000
vt 0.000000 0.000000
vt 0.000000 0.000000
vt 0.000000 0.000000
vt 0.000000 0.000000
vt 0.000000 0.000000
vt 0.000000 0.000000
vt 0.000000 0.000000
vt 0.000000 0.000000
vt 0.000000 0.000000
vt 0.000000 0.000000
vt 0.000000 0.000000
vt 0.000000 0.000000
vt 0.000000 0.000000
vt 0.000000 0.000000
vt 0.000000 0.000000
vt 0.000000 0.000000
vt 0.000000 0.000000
vt 0.000000 0.000000
vt 0.000000 0.000000
vt 0.000000 0.000000
vt 0.000000 0.000000
vt 0.000000 0.000000
vt 0.000000 0.000000
vt 0.000000 0.000000
vt 0.000000 0.000000
vt 0.000000 0.000000
vt 0.000000 0.000000
vt 0.000000 0.000000
vt 0.000000 0.000000
vt 0.000000 0.000000
vt 0.000000 0.000000
vt 0.000000 0.000000
vt 0.000000 0.000000
vt 0.000000 0.000000
vt 0.000000 0.000000
vt 0.000000 0.000000
vt 0.000000 0.000000
vt 0.000000 0.000000
vt 0.000000 0.000000
vt 0.000000 0.000000
vt 0.000000 0.000000
vt 0.000000 0.000000
vt 0.000000 0.000000
vt 0.000000 0.000000
vt 0.000000 0.000000
vt 0.000000 0.000000
vt 0.000000 0.000000
vt 0.000000 0.000000
vt 0.000000 0.000000
vt 0.000000 0.000000
vt 0.000000 0.000000
vt 0.000000 0.000000
vt 0.000000 0.000000
vt 0.000000 0.000000
vt 0.000000 0.000000
vt 0.000000 0.000000
vt 0.000000 0.000000
vt 0.000000 0.000000
vt 0.000000 0.000000
vt 0.000000 0.000000
vt 0.000000 0.000000
vt 0.000000 0.000000
vt 0.000000 0.000000
vt 0.000000 0.000000
vt 0.000000 0.000000
vt 0.000000 0.000000
vt 0.000000 0.000000
vt 0.000000 0.000000
vt 0.000000 0.000000
vt 0.000000 0.000000
vt 0.000000 0.000000
vt 0.000000 0.000000
vt 0.000000 0.000000
vt 0.000000 0.000000
vt 0.000000 0.000000
vt 0.000000 0.000000
vt 0.000000 0.000000
vt 0.000000 0.000000
vt 0.000000 0.000000
vt 0.000000 0.000000
vt 0.000000 0.000000
vt 0.000000 0.000000
vt 0.000000 0.000000
vt 0.000000 0.000000
vt 0.000000 0.000000
vt 0.000000 0.000000
vt 0.000000 0.000000
vt 0.000000 0.000000
vt 0.000000 0.000000
vt 0.000000 0.000000
vt 0.000000 0.000000
vt 0.000000 0.000000
vt 0.000000 0.000000
vt 0.000000 0.000000
vt 0.000000 0.000000
vt 0.000000 0.000000
vt 0.000000 0.000000
vt 0.000000 0.000000
vt 0.000000 0.000000
vt 0.000000 0.000000
vt 0.000000 0.000000
vt 0.000000 0.000000
vt 0.000000 0.000000
vt 0.000000 0.000000
vt 0.000000 0.000000
vt 0.000000 0.000000
vt 0.000000 0.000000
vt 0.000000 0.000000
vt 0.000000 0.000000
vt 0.000000 0.000000
vt 0.000000 0.000000
vt 0.000000 0.000000
vt 0.000000 0.000000
vt 0.000000 0.000000
vt 0.000000 0.000000
vt 0.000000 0.000000
vt 0.000000 0.000000
vt 0.000000 0.000000
vt 0.000000 0.000000
vt 0.000000 0.000000
vt 0.000000 0.000000
vt 0.000000 0.000000
vt 0.000000 0.000000
vt 0.000000 0.000000
vt 0.000000 0.000000
vt 0.000000 0.000000
vt 0.000000 0.000000
vt 0.000000 0.000000
vt 0.000000 0.000000
vt 0.000000 0.000000
vt 0.000000 0.000000
vt 0.000000 0.000000
vt 0.000000 0.000000
vt 0.000000 0.000000
vt 0.000000 0.000000
vt 0.000000 0.000000
vt 0.000000 0.000000
vt 0.000000 0.000000
vt 0.000000 0.000000
vt 0.000000 0.000000
vt 0.000000 0.000000
vt 0.000000 0.000000
vt 0.000000 0.000000
vt 0.000000 0.000000
vt 0.000000 0.000000
vt 0.000000 0.000000
vt 0.000000 0.000000
vt 0.000000 0.000000
vt 0.000000 0.000000
vt 0.000000 0.000000
vt 0.000000 0.000000
vt 0.000000 0.000000
vt 0.000000 0.000000
vt 0.000000 0.000000
vt 0.000000 0.000000
vt 0.000000 0.000000
vt 0.000000 0.000000
vt 0.000000 0.000000
vt 0.000000 0.000000
vt 0.000000 0.000000
s 0
usemtl blinn3SG
f 1/1/1 2/4/1 4/9/1 3/7/1
f 3/7/2 4/9/2 8/14/2 7/13/2
f 7/13/3 8/14/3 6/12/3 5/11/3
f 5/11/4 6/12/4 2/5/4 1/2/4
f 3/8/5 7/13/5 5/11/5 1/3/5
f 8/14/6 4/10/6 2/6/6 6/12/6
s 1
f 10/16/7 12/18/8 9/15/9
f 11/17/10 14/20/11 12/18/8
f 13/19/12 16/22/13 14/20/11
f 15/21/14 18/24/15 16/22/13
f 17/23/16 20/26/17 18/24/15
f 19/25/18 22/28/19 20/26/17
f 21/27/20 24/30/21 22/28/19
f 23/29/22 26/32/23 24/30/21
f 25/31/24 28/34/25 26/32/23
f 27/33/26 9/15/9 28/34/25
s 0
f 11/17/5 10/16/5 29/35/5
f 13/19/5 11/17/5 29/35/5
f 15/21/5 13/19/5 29/35/5
f 17/23/5 15/21/5 29/35/5
f 19/25/5 17/23/5 29/35/5
f 21/27/5 19/25/5 29/35/5
f 23/29/5 21/27/5 29/35/5
f 25/31/5 23/29/5 29/35/5
f 27/33/5 25/31/5 29/35/5
f 10/16/5 27/33/5 29/35/5
f 30/36/6 9/15/6 12/18/6
f 30/36/6 12/18/6 14/20/6
f 30/36/6 14/20/6 16/22/6
f 30/36/6 16/22/6 18/24/6
f 30/36/6 18/24/6 20/26/6
f 30/36/6 20/26/6 22/28/6
f 30/36/6 22/28/6 24/30/6
f 30/36/6 24/30/6 26/32/6
f 30/36/6 26/32/6 28/34/6
f 30/36/6 28/34/6 9/15/6
s 1
f 32/38/7 34/40/8 31/37/9
f 33/39/10 36/42/11 34/40/8
f 35/41/12 38/44/13 36/42/11
f 37/43/14 40/46/15 38/44/13
f 39/45/16 42/48/17 40/46/15
f 41/47/18 44/50/19 42/48/17
f 43/49/20 46/52/21 44/50/19
f 45/51/22 48/54/23 46/52/21
f 47/53/24 50/56/25 48/54/23
f 49/55/26 31/37/9 50/56/25
s 0
f 33/39/5 32/38/5 51/57/5
f 35/41/5 33/39/5 51/57/5
f 37/43/5 35/41/5 51/57/5
f 39/45/5 37/43/5 51/57/5
f 41/47/5 39/45/5 51/57/5
f 43/49/5 41/47/5 51/57/5
f 45/51/5 43/49/5 51/57/5
f 47/53/5 45/51/5 51/57/5
f 49/55/5 47/53/5 51/57/5
f 32/38/5 49/55/5 51/57/5
f 52/58/6 31/37/6 34/40/6
f 52/58/6 34/40/6 36/42/6
f 52/58/6 36/42/6 38/44/6
f 52/58/6 38/44/6 40/46/6
f 52/58/6 40/46/6 42/48/6
f 52/58/6 42/48/6 44/50/6
f 52/58/6 44/50/6 46/52/6
f 52/58/6 46/52/6 48/54/6
f 52/58/6 48/54/6 50/56/6
f 52/58/6 50/56/6 31/37/6
s 1
f 54/60/18 56/62/19 53/59/17
f 55/61/20 58/64/21 56/62/19
f 57/63/22 60/66/23 58/64/21
f 59/65/24 62/68/25 60/66/23
f 61/67/26 64/70/9 62/68/25
f 63/69/7 66/72/8 64/70/9
f 65/71/10 68/74/11 66/72/8
f 67/73/12 70/76/13 68/74/11
f 69/75/14 72/78/15 70/76/13
f 71/77/16 53/59/17 72/78/15
s 0
f 55/61/5 54/60/5 73/79/5
f 57/63/5 55/61/5 73/79/5
f 59/65/5 57/63/5 73/79/5
f 61/67/5 59/65/5 73/79/5
f 63/69/5 61/67/5 73/79/5
f 65/71/5 63/69/5 73/79/5
f 67/73/5 65/71/5 73/79/5
f 69/75/5 67/73/5 73/79/5
f 71/77/5 69/75/5 73/79/5
f 54/60/5 71/77/5 73/79/5
f 74/80/6 53/59/6 56/62/6
f 74/80/6 56/62/6 58/64/6
f 74/80/6 58/64/6 60/66/6
f 74/80/6 60/66/6 62/68/6
f 74/80/6 62/68/6 64/70/6
f 74/80/6 64/70/6 66/72/6
f 74/80/6 66/72/6 68/74/6
f 74/80/6 68/74/6 70/76/6
f 74/80/6 70/76/6 72/78/6
f 74/80/6 72/78/6 53/59/6
s 1
f 76/82/18 78/84/19 75/81/17
f 77/83/20 80/86/21 78/84/19
f 79/85/22 82/88/23 80/86/21
f 81/87/24 84/90/25 82/88/23
f 83/89/26 86/92/9 84/90/25
f 85/91/7 88/94/8 86/92/9
f 87/93/10 90/96/11 88/94/8
f 89/95/12 92/98/13 90/96/11
f 91/97/14 94/100/15 92/98/13
f 93/99/16 75/81/17 94/100/15
s 0
f 77/83/5 76/82/5 95/101/5
f 79/85/5 77/83/5 95/101/5
f 81/87/5 79/85/5 95/101/5
f 83/89/5 81/87/5 95/101/5
f 85/91/5 83/89/5 95/101/5
f 87/93/5 85/91/5 95/101/5
f 89/95/5 87/93/5 95/101/5
f 91/97/5 89/95/5 95/101/5
f 93/99/5 91/97/5 95/101/5
f 76/82/5 93/99/5 95/101/5
f 96/102/6 75/81/6 78/84/6
f 96/102/6 78/84/6 80/86/6
f 96/102/6 80/86/6 82/88/6
f 96/102/6 82/88/6 84/90/6
f 96/102/6 84/90/6 86/92/6
f 96/102/6 86/92/6 88/94/6
f 96/102/6 88/94/6 90/96/6
f 96/102/6 90/96/6 92/98/6
f 96/102/6 92/98/6 94/100/6
f 96/102/6 94/100/6 75/81/6
f 98/104/6 100/106/6 97/103/6
f 102/108/5 104/110/5 101/107/5
f 106/112/5 108/114/5 105/111/5
f 103/109/5 105/111/5 104/110/5
f 107/113/5 101/107/5 108/114/5
f 110/116/6 112/118/6 109/115/6
f 114/120/6 116/122/6 113/119/6
f 113/119/6 111/117/6 110/116/6
f 109/115/6 115/121/6 114/120/6
f 101/107/2 110/116/2 109/115/2
f 103/109/4 112/118/4 111/117/4
f 105/111/4 114/120/4 113/119/4
f 107/113/2 116/122/2 115/121/2
f 104/110/3 113/119/3 110/116/3
f 106/112/1 111/117/1 116/122/1
f 108/114/1 109/115/1 114/120/1
f 102/108/3 115/121/3 112/118/3
f 118/124/6 120/126/6 117/123/6
f 122/128/5 124/130/5 121/127/5
f 126/132/5 128/134/5 125/131/5
f 123/129/5 125/131/5 124/130/5
f 127/133/5 121/127/5 128/134/5
f 130/136/6 132/138/6 129/135/6
f 134/140/6 136/142/6 133/139/6
f 133/139/6 131/137/6 130/136/6
f 129/135/6 135/141/6 134/140/6
f 121/127/2 130/136/2 129/135/2
f 123/129/4 132/138/4 131/137/4
f 125/131/4 134/140/4 133/139/4
f 127/133/2 136/142/2 135/141/2
f 124/130/3 133/139/3 130/136/3
f 126/132/1 131/137/1 136/142/1
f 128/134/1 129/135/1 134/140/1
f 122/128/3 135/141/3 132/138/3
f 138/144/6 140/146/6 137/143/6
f 142/148/5 144/150/5 141/147/5
f 146/152/5 148/154/5 145/151/5
f 145/151/5 143/149/5 142/148/5
f 141/147/5 147/153/5 146/152/5
f 150/156/6 152/158/6 149/155/6
f 154/160/6 156/162/6 153/159/6
f 151/157/6 153/159/6 152/158/6
f 155/161/6 149/155/6 156/162/6
f 152/158/4 141/147/4 149/155/4
f 150/156/2 143/149/2 151/157/2
f 156/162/2 145/151/2 153/159/2
f 154/160/4 147/153/4 155/161/4
f 153/159/3 142/148/3 152/158/3
f 151/157/1 148/154/1 154/160/1
f 149/155/1 146/152/1 156/162/1
f 155/161/3 144/150/3 150/156/3
f 158/164/6 160/166/6 157/163/6
f 162/168/5 164/170/5 161/167/5
f 166/172/5 168/174/5 165/171/5
f 163/169/5 165/171/5 164/170/5
f 167/173/5 161/167/5 168/174/5
f 170/176/6 172/178/6 169/175/6
f 174/180/6 176/182/6 173/179/6
f 173/179/6 171/177/6 170/176/6
f 169/175/6 175/181/6 174/180/6
f 161/167/4 170/176/4 169/175/4
f 163/169/2 172/178/2 171/177/2
f 165/171/2 174/180/2 173/179/2
f 167/173/4 176/182/4 175/181/4
f 164/170/1 173/179/1 170/176/1
f 166/172/3 171/177/3 176/182/3
f 168/174/3 169/175/3 174/180/3
f 162/168/1 175/181/1 172/178/1
f 178/184/6 180/186/6 177/183/6
f 182/188/5 184/190/5 181/187/5
f 186/192/5 188/194/5 185/191/5
f 183/189/5 185/191/5 184/190/5
f 187/193/5 181/187/5 188/194/5
f 190/196/6 192/198/6 189/195/6
f 194/200/6 196/202/6 193/199/6
f 193/199/6 191/197/6 190/196/6
f 189/195/6 195/201/6 194/200/6
f 181/187/2 190/196/2 189/195/2
f 183/189/4 192/198/4 191/197/4
f 185/191/4 194/200/4 193/199/4
f 187/193/2 196/202/2 195/201/2
f 184/190/3 193/199/3 190/196/3
f 186/192/1 191/197/1 196/202/1
f 188/194/1 189/195/1 194/200/1
f 182/188/3 195/201/3 192/198/3
s 1
f 10/16/7 11/17/10 12/18/8
f 11/17/10 13/19/12 14/20/11
f 13/19/12 15/21/14 16/22/13
f 15/21/14 17/23/16 18/24/15
f 17/23/16 19/25/18 20/26/17
f 19/25/18 21/27/20 22/28/19
f 21/27/20 23/29/22 24/30/21
f 23/29/22 25/31/24 26/32/23
f 25/31/24 27/33/26 28/34/25
f 27/33/26 10/16/7 9/15/9
f 32/38/7 33/39/10 34/40/8
f 33/39/10 35/41/12 36/42/11
f 35/41/12 37/43/14 38/44/13
f 37/43/14 39/45/16 40/46/15
f 39/45/16 41/47/18 42/48/17
f 41/47/18 43/49/20 44/50/19
f 43/49/20 45/51/22 46/52/21
f 45/51/22 47/53/24 48/54/23
f 47/53/24 49/55/26 50/56/25
f 49/55/26 32/38/7 31/37/9
f 54/60/18 55/61/20 56/62/19
f 55/61/20 57/63/22 58/64/21
f 57/63/22 59/65/24 60/66/23
f 59/65/24 61/67/26 62/68/25
f 61/67/26 63/69/7 64/70/9
f 63/69/7 65/71/10 66/72/8
f 65/71/10 67/73/12 68/74/11
f 67/73/12 69/75/14 70/76/13
f 69/75/14 71/77/16 72/78/15
f 71/77/16 54/60/18 53/59/17
f 76/82/18 77/83/20 78/84/19
f 77/83/20 79/85/22 80/86/21
f 79/85/22 81/87/24 82/88/23
f 81/87/24 83/89/26 84/90/25
f 83/89/26 85/91/7 86/92/9
f 85/91/7 87/93/10 88/94/8
f 87/93/10 89/95/12 90/96/11
f 89/95/12 91/97/14 92/98/13
f 91/97/14 93/99/16 94/100/15
f 93/99/16 76/82/18 75/81/17
s 0
f 98/104/6 99/105/6 100/106/6
f 102/108/5 103/109/5 104/110/5
f 106/112/5 107/113/5 108/114/5
f 103/109/5 106/112/5 105/111/5
f 107/113/5 102/108/5 101/107/5
f 110/116/6 111/117/6 112/118/6
f 114/120/6 115/121/6 116/122/6
f 113/119/6 116/122/6 111/117/6
f 109/115/6 112/118/6 115/121/6
f 101/107/2 104/110/2 110/116/2
f 103/109/4 102/108/4 112/118/4
f 105/111/4 108/114/4 114/120/4
f 107/113/2 106/112/2 116/122/2
f 104/110/3 105/111/3 113/119/3
f 106/112/1 103/109/1 111/117/1
f 108/114/1 101/107/1 109/115/1
f 102/108/3 107/113/3 115/121/3
f 118/124/6 119/125/6 120/126/6
f 122/128/5 123/129/5 124/130/5
f 126/132/5 127/133/5 128/134/5
f 123/129/5 126/132/5 125/131/5
f 127/133/5 122/128/5 121/127/5
f 130/136/6 131/137/6 132/138/6
f 134/140/6 135/141/6 136/142/6
f 133/139/6 136/142/6 131/137/6
f 129/135/6 132/138/6 135/141/6
f 121/127/2 124/130/2 130/136/2
f 123/129/4 122/128/4 132/138/4
f 125/131/4 128/134/4 134/140/4
f 127/133/2 126/132/2 136/142/2
f 124/130/3 125/131/3 133/139/3
f 126/132/1 123/129/1 131/137/1
f 128/134/1 121/127/1 129/135/1
f 122/128/3 127/133/3 135/141/3
f 138/144/6 139/145/6 140/146/6
f 142/148/5 143/149/5 144/150/5
f 146/152/5 147/153/5 148/154/5
f 145/151/5 148/154/5 143/149/5
f 141/147/5 144/150/5 147/153/5
f 150/156/6 151/157/6 152/158/6
f 154/160/6 155/161/6 156/162/6
f 151/157/6 154/160/6 153/159/6
f 155/161/6 150/156/6 149/155/6
f 152/158/4 142/148/4 141/147/4
f 150/156/2 144/150/2 143/149/2
f 156/162/2 146/152/2 145/151/2
f 154/160/4 148/154/4 147/153/4
f 153/159/3 145/151/3 142/148/3
f 151/157/1 143/149/1 148/154/1
f 149/155/1 141/147/1 146/152/1
f 155/161/3 147/153/3 144/150/3
f 158/164/6 159/165/6 160/166/6
f 162/168/5 163/169/5 164/170/5
f 166/172/5 167/173/5 168/174/5
f 163/169/5 166/172/5 165/171/5
f 167/173/5 162/168/5 161/167/5
f 170/176/6 171/177/6 172/178/6
f 174/180/6 175/181/6 176/182/6
f 173/179/6 176/182/6 171/177/6
f 169/175/6 172/178/6 175/181/6
f 161/167/4 164/170/4 170/176/4
f 163/169/2 162/168/2 172/178/2
f 165/171/2 168/174/2 174/180/2
f 167/173/4 166/172/4 176/182/4
f 164/170/1 165/171/1 173/179/1
f 166/172/3 163/169/3 171/177/3
f 168/174/3 161/167/3 169/175/3
f 162/168/1 167/173/1 175/181/1
f 178/184/6 179/185/6 180/186/6
f 182/188/5 183/189/5 184/190/5
f 186/192/5 187/193/5 188/194/5
f 183/189/5 186/192/5 185/191/5
f 187/193/5 182/188/5 181/187/5
f 190/196/6 191/197/6 192/198/6
f 194/200/6 195/201/6 196/202/6
f 193/199/6 196/202/6 191/197/6
f 189/195/6 192/198/6 195/201/6
f 181/187/2 184/190/2 190/196/2
f 183/189/4 182/188/4 192/198/4
f 185/191/4 188/194/4 194/200/4
f 187/193/2 186/192/2 196/202/2
f 184/190/3 185/191/3 193/199/3
f 186/192/1 183/189/1 191/197/1
f 188/194/1 181/187/1 189/195/1
f 182/188/3 187/193/3 195/201/3
